<?xml version="1.0" encoding="utf-8"?>
<!-- Generator: Adobe Illustrator 26.0.1, SVG Export Plug-In . SVG Version: 6.00 Build 0)  -->
<svg version="1.1" id="Layer_1" xmlns="http://www.w3.org/2000/svg" xmlns:xlink="http://www.w3.org/1999/xlink" x="0px" y="0px"
	 viewBox="0 0 179 41" style="enable-background:new 0 0 179 41;" xml:space="preserve">
<style type="text/css">
	.st0{clip-path:url(#SVGID_00000145758377767894306170000001754914177995137414_);}
	.st1{fill-rule:evenodd;clip-rule:evenodd;fill:#C7231A;}
	.st2{fill:#FFFFFF;}
</style>
<g>
	<g>
		<defs>
			<rect id="SVGID_1_" y="0" width="40" height="41"/>
		</defs>
		<clipPath id="SVGID_00000150803627196890453100000002811070610979937188_">
			<use xlink:href="#SVGID_1_"  style="overflow:visible;"/>
		</clipPath>
		<g style="clip-path:url(#SVGID_00000150803627196890453100000002811070610979937188_);">
			<path class="st1" d="M13.7,0.5c-2.3,0-4.4,0.9-6,2.5L0,10.7v3.5c0,2.5,1.1,4.7,2.8,6.3C1,22.1,0,24.4,0,26.8v3.5L7.7,38
				c3.3,3.3,8.7,3.3,12,0c0.1-0.1,0.2-0.2,0.3-0.3c3.2,3.5,8.5,3.7,12,0.6c0.1-0.1,0.2-0.2,0.3-0.3l7.7-7.7v-3.5
				c0-2.5-1.1-4.7-2.8-6.3c1.8-1.6,2.8-3.9,2.8-6.3v-3.5L32.3,3c-3.3-3.3-8.7-3.3-12,0c-0.1,0.1-0.2,0.2-0.3,0.3
				C18.4,1.5,16.1,0.5,13.7,0.5z M25.8,20.5c-0.1-0.1-0.2-0.2-0.3-0.3L20,14.8l-5.5,5.5c-0.1,0.1-0.2,0.2-0.3,0.3
				c0.1,0.1,0.2,0.2,0.3,0.3l5.5,5.5l5.5-5.5C25.6,20.7,25.7,20.6,25.8,20.5z M22.2,30.3V32c0,2.2,1.8,4.1,4.1,4.1
				c1.1,0,2.1-0.4,2.9-1.2l6.4-6.4v-1.7c0-2.2-1.8-4.1-4.1-4.1c-1.1,0-2.1,0.4-2.9,1.2C28.6,23.9,22.2,30.3,22.2,30.3z M17.8,30.3
				l-6.4-6.4c-1.6-1.6-4.2-1.6-5.7,0c-0.8,0.8-1.2,1.8-1.2,2.9v1.7l6.4,6.4c1.6,1.6,4.2,1.6,5.7,0c0.8-0.8,1.2-1.8,1.2-2.9V30.3z
				 M17.8,9v1.7l-6.4,6.4c-1.6,1.6-4.2,1.6-5.7,0c-0.8-0.8-1.2-1.8-1.2-2.9v-1.7l6.4-6.4c1.6-1.6,4.2-1.6,5.7,0
				C17.3,6.9,17.8,7.9,17.8,9z M28.6,17.1l-6.4-6.4V9c0-2.2,1.8-4,4.1-4c1.1,0,2.1,0.4,2.9,1.2l6.4,6.4v1.7c0,2.2-1.8,4.1-4.1,4.1
				C30.4,18.3,29.4,17.9,28.6,17.1z"/>
		</g>
	</g>
</g>
<path class="st2" d="M54.3,29V12.2h11.5v3.1h-7.9v3.6h6.7v2.9h-6.7v4.1h8V29C65.9,29,54.3,29,54.3,29z M67.1,29l4.4-6l-4.1-6.1h4.4
	l2.1,3.7l2.1-3.7h4.3l-4,6l4.3,6.1h-4.5l-2.4-3.7L71.4,29H67.1z M87.4,29.4c-1.3,0-2.3-0.4-3.1-1.1c-0.7-0.7-1.1-1.8-1.1-3.3V13.4
	h3.5v3.5h3v2.8h-3v4.6c0,0.7,0.1,1.2,0.4,1.5s0.7,0.4,1.2,0.4c0.3,0,0.5,0,0.7-0.1s0.5-0.2,0.7-0.3l0.5,2.8
	c-0.4,0.2-0.8,0.4-1.3,0.5C88.5,29.3,88,29.4,87.4,29.4z M80.8,19.7v-2.8h2.8v2.8H80.8L80.8,19.7z M97.9,29.4
	c-1.3,0-2.5-0.3-3.5-0.8s-1.8-1.3-2.3-2.2c-0.6-1-0.8-2.1-0.8-3.4c0-0.9,0.2-1.8,0.5-2.6c0.3-0.8,0.8-1.5,1.4-2
	c0.6-0.6,1.3-1,2.1-1.3c0.8-0.3,1.7-0.5,2.6-0.5c1,0,2,0.2,2.8,0.6c0.8,0.3,1.5,0.9,2,1.5c0.5,0.7,0.9,1.4,1.1,2.3s0.2,1.9,0.1,2.9
	h-9.3c0,0.6,0.1,1,0.4,1.5c0.3,0.4,0.7,0.7,1.2,1c0.5,0.2,1.2,0.3,1.9,0.3c0.7,0,1.4-0.1,2-0.3c0.6-0.2,1.3-0.5,1.8-0.9l1.2,2.4
	c-0.4,0.3-0.9,0.6-1.4,0.8c-0.6,0.2-1.2,0.4-1.8,0.5C99.1,29.3,98.5,29.4,97.9,29.4L97.9,29.4z M94.7,21.4h5.7
	c0-0.7-0.3-1.3-0.8-1.7c-0.5-0.4-1.1-0.6-2-0.6s-1.5,0.2-2.1,0.6C95.1,20.1,94.8,20.7,94.7,21.4z M105.8,29V16.9h3.5v1.4
	c0.5-0.6,1-1,1.6-1.3s1.3-0.4,2-0.4c1.1,0,2.1,0.2,2.8,0.7c0.7,0.4,1.3,1,1.6,1.7c0.4,0.7,0.5,1.4,0.5,2.2V29h-3.5v-6.8
	c0-0.8-0.2-1.4-0.6-1.8c-0.4-0.5-1-0.7-1.8-0.7c-0.5,0-1,0.1-1.4,0.3c-0.4,0.2-0.7,0.5-0.9,0.9c-0.2,0.4-0.3,0.9-0.3,1.4V29
	C109.3,29,105.8,29,105.8,29z M125.1,29.3c-1.1,0-2.1-0.1-3-0.4s-1.7-0.7-2.3-1.2l1.1-2.4c0.6,0.4,1.3,0.8,2.1,1
	c0.7,0.2,1.4,0.4,2.1,0.4s1.2-0.1,1.5-0.3c0.4-0.2,0.6-0.5,0.6-0.9c0-0.3-0.2-0.6-0.5-0.8c-0.3-0.2-0.9-0.3-1.9-0.5
	c-1.6-0.3-2.8-0.7-3.5-1.4c-0.7-0.6-1.1-1.5-1.1-2.6c0-0.8,0.2-1.4,0.6-2s1-1,1.8-1.4c0.8-0.3,1.6-0.5,2.6-0.5s1.9,0.1,2.7,0.4
	c0.9,0.3,1.6,0.6,2.2,1.1l-1.1,2.5c-0.3-0.3-0.7-0.5-1.1-0.7s-0.8-0.3-1.3-0.4c-0.4-0.1-0.9-0.2-1.3-0.2c-0.6,0-1.1,0.1-1.4,0.3
	c-0.4,0.2-0.5,0.5-0.5,0.8s0.2,0.6,0.5,0.8c0.3,0.2,0.9,0.4,1.8,0.6c1.7,0.4,2.9,0.8,3.6,1.4c0.7,0.6,1.1,1.4,1.1,2.4
	c0,0.8-0.2,1.5-0.7,2.1c-0.4,0.6-1,1.1-1.8,1.4C127.1,29.2,126.2,29.3,125.1,29.3L125.1,29.3z M132.5,29V16.9h3.5V29H132.5z
	 M134.3,15c-0.6,0-1.1-0.2-1.5-0.5c-0.4-0.4-0.6-0.9-0.6-1.5s0.2-1.1,0.6-1.5c0.4-0.4,1-0.6,1.5-0.6c0.6,0,1.1,0.2,1.5,0.6
	c0.4,0.4,0.6,0.8,0.6,1.5c0,0.6-0.2,1.1-0.6,1.5C135.4,14.8,134.8,15,134.3,15z M144.6,29.4c-1.3,0-2.5-0.3-3.5-0.9
	s-1.8-1.4-2.4-2.3c-0.6-1-0.9-2.1-0.9-3.2c0-0.9,0.2-1.7,0.5-2.4c0.3-0.8,0.8-1.5,1.4-2.1c0.6-0.6,1.3-1.1,2.1-1.4s1.7-0.5,2.7-0.5
	c1.3,0,2.5,0.3,3.5,0.9s1.8,1.4,2.4,2.3c0.6,1,0.9,2,0.9,3.2c0,0.8-0.2,1.7-0.5,2.4c-0.3,0.8-0.8,1.5-1.4,2.1
	c-0.6,0.6-1.3,1.1-2.1,1.4C146.5,29.2,145.6,29.4,144.6,29.4L144.6,29.4z M144.6,26.3c0.6,0,1.2-0.1,1.7-0.4s0.9-0.7,1.2-1.2
	s0.4-1.1,0.4-1.8c0-0.7-0.1-1.3-0.4-1.8c-0.3-0.5-0.7-0.9-1.1-1.2c-0.5-0.3-1-0.4-1.7-0.4s-1.2,0.1-1.7,0.4s-0.9,0.7-1.2,1.2
	s-0.4,1.1-0.4,1.8s0.1,1.3,0.4,1.8s0.7,0.9,1.2,1.2S144,26.3,144.6,26.3z M153.2,29V16.9h3.5v1.4c0.5-0.6,1-1,1.6-1.3s1.3-0.4,2-0.4
	c1.1,0,2.1,0.2,2.8,0.7c0.7,0.4,1.3,1,1.6,1.7c0.4,0.7,0.5,1.4,0.5,2.2V29h-3.5v-6.8c0-0.8-0.2-1.4-0.6-1.8c-0.4-0.5-1-0.7-1.8-0.7
	c-0.5,0-1,0.1-1.4,0.3c-0.4,0.2-0.7,0.5-0.9,0.9s-0.3,0.9-0.3,1.4V29H153.2L153.2,29z M172.5,29.3c-1.1,0-2.1-0.1-3-0.4
	s-1.7-0.7-2.3-1.2l1.1-2.4c0.6,0.4,1.3,0.8,2.1,1c0.7,0.2,1.4,0.4,2.1,0.4c0.7,0,1.2-0.1,1.5-0.3c0.4-0.2,0.6-0.5,0.6-0.9
	c0-0.3-0.2-0.6-0.5-0.8c-0.3-0.2-0.9-0.3-1.9-0.5c-1.6-0.3-2.8-0.7-3.5-1.4c-0.7-0.6-1.1-1.5-1.1-2.6c0-0.8,0.2-1.4,0.6-2
	c0.4-0.6,1-1,1.8-1.4c0.8-0.3,1.6-0.5,2.6-0.5s1.9,0.1,2.7,0.4c0.9,0.3,1.6,0.6,2.2,1.1l-1.1,2.5c-0.3-0.3-0.7-0.5-1.1-0.7
	c-0.4-0.2-0.8-0.3-1.3-0.4c-0.4-0.1-0.9-0.2-1.3-0.2c-0.6,0-1.1,0.1-1.4,0.3c-0.4,0.2-0.5,0.5-0.5,0.8s0.2,0.6,0.5,0.8
	c0.3,0.2,0.9,0.4,1.8,0.6c1.7,0.4,2.9,0.8,3.6,1.4c0.7,0.6,1.1,1.4,1.1,2.4c0,0.8-0.2,1.5-0.7,2.1c-0.4,0.6-1,1.1-1.8,1.4
	C174.5,29.2,173.6,29.3,172.5,29.3L172.5,29.3z"/>
</svg>
